<?xml version="1.0" encoding="UTF-8"?>
<svg version="1.1" xmlns="http://www.w3.org/2000/svg" width="500" height="500">
<path d="M0 0 C165 0 330 0 500 0 C500 165 500 330 500 500 C335 500 170 500 0 500 C0 335 0 170 0 0 Z " fill="#FEFEFE" transform="translate(0,0)"/>
<path d="M0 0 C2.94883525 1.1341674 3.85140779 2.24114324 5.4375 4.9375 C5.7675 5.9275 6.0975 6.9175 6.4375 7.9375 C6.72625 7.15375 7.015 6.37 7.3125 5.5625 C8.4375 2.9375 8.4375 2.9375 10.4375 0.9375 C14.35584435 0.47970195 18.30801755 0.61350734 22.25 0.625 C23.34376953 0.60888672 24.43753906 0.59277344 25.56445312 0.57617188 C26.62212891 0.57552734 27.67980469 0.57488281 28.76953125 0.57421875 C29.73608643 0.57123779 30.7026416 0.56825684 31.69848633 0.56518555 C34.90001557 1.0003698 36.71313027 2.25756917 39.4375 3.9375 C43.45156055 4.20412964 43.45156055 4.20412964 46.875 2.4375 C52.48363524 0.20462823 58.49547488 0.31159585 64.4375 0.9375 C65.4275 1.5975 66.4175 2.2575 67.4375 2.9375 C68.05400485 8.48604369 68.05400485 8.48604369 67.4375 10.9375 C65.18453912 13.29165771 63.80710244 13.88979316 60.5625 14.30859375 C58.47922035 14.35286344 56.39588377 14.3945303 54.3125 14.43359375 C50.76384705 15.05557232 49.56666409 16.07131757 47.4375 18.9375 C47.27164809 22.52655085 47.27164809 22.52655085 48.4375 25.9375 C51.45820806 28.88939922 53.85307136 29.34810097 58 29.5625 C61.12113828 29.74036677 63.45481176 29.94327059 66.4375 30.9375 C68.4375 33.9375 68.4375 33.9375 68.1875 37 C67.4375 39.9375 67.4375 39.9375 65.4375 41.9375 C62.66121149 42.19177137 60.02753649 42.30780425 57.25 42.3125 C56.50685547 42.33699219 55.76371094 42.36148438 54.99804688 42.38671875 C49.29977001 42.4166834 46.23573321 40.94018703 41.4375 37.9375 C39.15252233 38.49626888 39.15252233 38.49626888 37.4375 39.9375 C32.44168213 41.60277262 27.29465645 41.37332054 22.0625 41.5 C20.92554688 41.56251953 19.78859375 41.62503906 18.6171875 41.68945312 C10.45746245 41.84747597 10.45746245 41.84747597 7.63305664 39.32763672 C6.30490947 37.24709578 5.3453937 35.22998388 4.4375 32.9375 C3.91542969 31.885625 3.39335937 30.83375 2.85546875 29.75 C2.44941406 28.821875 2.04335937 27.89375 1.625 26.9375 C1.20605469 25.98875 0.78710938 25.04 0.35546875 24.0625 C-0.09892578 23.010625 -0.09892578 23.010625 -0.5625 21.9375 C-3.38004392 25.36868079 -5.26769917 29.15117497 -7.1875 33.125 C-10.44337084 39.81837084 -10.44337084 39.81837084 -11.5625 40.9375 C-15 41.1875 -15 41.1875 -18.5625 40.9375 C-20.5625 37.9375 -20.5625 37.9375 -20.36254883 34.66894531 C-19.54893052 30.87421166 -18.38154875 27.75589913 -16.76171875 24.234375 C-16.48407181 23.6299054 -16.20642487 23.02543579 -15.92036438 22.40264893 C-15.33569692 21.13674464 -14.74637355 19.87298112 -14.15258789 18.61132812 C-13.24880736 16.68495794 -12.36688465 14.7495773 -11.48632812 12.8125 C-10.91274467 11.57752674 -10.33791734 10.34313028 -9.76171875 9.109375 C-9.24440186 7.9965918 -8.72708496 6.88380859 -8.1940918 5.73730469 C-6.071467 2.09488944 -4.36539883 -0.10647314 0 0 Z " fill="#295E60" transform="translate(164.5625,211.0625)"/>
<path d="M0 0 C0.598125 0.474375 1.19625 0.94875 1.8125 1.4375 C5.75733154 3.37124095 9.13247585 3.53912875 13.4765625 3.7890625 C16 4 16 4 19 5 C21 8 21 8 20.75 11.0625 C20 14 20 14 18 16 C15.22371149 16.25427137 12.59003649 16.37030425 9.8125 16.375 C9.06935547 16.39949219 8.32621094 16.42398438 7.56054688 16.44921875 C1.86227001 16.4791834 -1.20176679 15.00268703 -6 12 C-8.28497767 12.55876888 -8.28497767 12.55876888 -10 14 C-13.15778446 15.05259482 -15.41194879 15.12916606 -18.7265625 15.1328125 C-19.8403125 15.13410156 -20.9540625 15.13539063 -22.1015625 15.13671875 C-23.26429688 15.13285156 -24.42703125 15.12898437 -25.625 15.125 C-26.79546875 15.12886719 -27.9659375 15.13273438 -29.171875 15.13671875 C-30.28304687 15.13542969 -31.39421875 15.13414062 -32.5390625 15.1328125 C-33.56209473 15.13168457 -34.58512695 15.13055664 -35.63916016 15.12939453 C-38 15 -38 15 -39 14 C-39.07226502 12.14712498 -39.0838122 10.29166122 -39.0625 8.4375 C-39.05347656 7.42558594 -39.04445312 6.41367188 -39.03515625 5.37109375 C-39.02355469 4.58863281 -39.01195312 3.80617187 -39 3 C-35.7 3 -32.4 3 -29 3 C-29 2.34 -29 1.68 -29 1 C-26.75106046 0.89176227 -24.50062425 0.81430355 -22.25 0.75 C-20.99703125 0.70359375 -19.7440625 0.6571875 -18.453125 0.609375 C-15 1 -15 1 -12.65625 2.875 C-9.29032258 7.19354839 -9.29032258 7.19354839 -8 9 C-6.12119128 8.95231597 -6.12119128 8.95231597 -4 8 C-1.0005056 4.38843162 -1.0005056 4.38843162 0 0 Z " fill="#285F61" transform="translate(212,237)"/>
<path d="M0 0 C2.94883525 1.1341674 3.85140779 2.24114324 5.4375 4.9375 C5.7675 5.9275 6.0975 6.9175 6.4375 7.9375 C7.0975 6.6175 7.7575 5.2975 8.4375 3.9375 C8.62366813 6.73002199 8.78452616 9.18264617 8.4375 11.9375 C6.625 13.9375 6.625 13.9375 4.4375 15.9375 C3.22338222 18.5587752 2.35345695 21.18962916 1.4375 23.9375 C0.4475 23.2775 -0.5425 22.6175 -1.5625 21.9375 C-1.79437012 22.44200684 -2.02624023 22.94651367 -2.26513672 23.46630859 C-3.31804355 25.75050077 -4.37768168 28.03150694 -5.4375 30.3125 C-5.80230469 31.1065625 -6.16710937 31.900625 -6.54296875 32.71875 C-6.89746094 33.47929687 -7.25195312 34.23984375 -7.6171875 35.0234375 C-7.94187012 35.7251709 -8.26655273 36.4269043 -8.60107422 37.14990234 C-9.5625 38.9375 -9.5625 38.9375 -11.5625 40.9375 C-15.0625 41.25 -15.0625 41.25 -18.5625 40.9375 C-20.5625 37.9375 -20.5625 37.9375 -20.36254883 34.66894531 C-19.54893052 30.87421166 -18.38154875 27.75589913 -16.76171875 24.234375 C-16.48407181 23.6299054 -16.20642487 23.02543579 -15.92036438 22.40264893 C-15.33569692 21.13674464 -14.74637355 19.87298112 -14.15258789 18.61132812 C-13.24880736 16.68495794 -12.36688465 14.7495773 -11.48632812 12.8125 C-10.91274467 11.57752674 -10.33791734 10.34313028 -9.76171875 9.109375 C-9.24440186 7.9965918 -8.72708496 6.88380859 -8.1940918 5.73730469 C-6.071467 2.09488944 -4.36539883 -0.10647314 0 0 Z " fill="#39898C" transform="translate(164.5625,211.0625)"/>
<path d="M0 0 C1.13566406 -0.01417969 2.27132812 -0.02835938 3.44140625 -0.04296875 C6.4375 0.1875 6.4375 0.1875 9.4375 2.1875 C10.05400485 7.73604369 10.05400485 7.73604369 9.4375 10.1875 C7.18453912 12.54165771 5.80710244 13.13979316 2.5625 13.55859375 C0.47922035 13.60286344 -1.60411623 13.6445303 -3.6875 13.68359375 C-7.17793282 14.29536798 -8.34168961 15.50224128 -10.5625 18.1875 C-11.09875 17.8575 -11.635 17.5275 -12.1875 17.1875 C-15.1667758 15.93306808 -17.35566197 15.91457761 -20.5625 16.1875 C-21.5525 16.8475 -22.5425 17.5075 -23.5625 18.1875 C-23.5625 17.1975 -23.5625 16.2075 -23.5625 15.1875 C-28.5125 15.1875 -33.4625 15.1875 -38.5625 15.1875 C-38.5625 13.5375 -38.5625 11.8875 -38.5625 10.1875 C-37.53769531 10.06632813 -36.51289063 9.94515625 -35.45703125 9.8203125 C-34.09631021 9.65139541 -32.7356355 9.4821048 -31.375 9.3125 C-30.70146484 9.23386719 -30.02792969 9.15523437 -29.33398438 9.07421875 C-22.60505135 8.2207931 -18.07211839 6.00877009 -12.52734375 2.30859375 C-8.46834804 -0.00737398 -4.61763673 0.02626642 0 0 Z " fill="#419EA2" transform="translate(222.5625,211.8125)"/>
<path d="M0 0 C0.66 0 1.32 0 2 0 C1.43945339 3.36327963 0.58158962 5.99112219 -1 9 C-0.09507813 8.91298828 -0.09507813 8.91298828 0.828125 8.82421875 C3.29717478 8.68483691 5.54879273 8.65708499 8 9 C10.4375 11.25 10.4375 11.25 12 14 C12.433125 14.680625 12.86625 15.36125 13.3125 16.0625 C14.21094032 18.59446818 14.02434554 19.51230369 13 22 C9.50704225 27.74647887 9.50704225 27.74647887 7 29 C4.94140625 29.203125 4.94140625 29.203125 2.5625 29.25 C1.78003906 29.27578125 0.99757813 29.3015625 0.19140625 29.328125 C-2.54005669 28.9191359 -3.30286352 28.13268478 -5 26 C-8.06706408 20.96125186 -8.06706408 20.96125186 -7.8125 17.3125 C-7 15 -7 15 -5 12 C-4.87625 10.88625 -4.7525 9.7725 -4.625 8.625 C-3.92949293 4.59105902 -2.86536976 2.86536976 0 0 Z " fill="#070707" transform="translate(122,225)"/>
<path d="M0 0 C3.15461617 0.81544731 4.07753661 1.64196217 5.89453125 4.30859375 C7.33146361 7.23952076 7.64497699 8.65996952 7.58203125 11.99609375 C6.64453125 14.68359375 6.64453125 14.68359375 4.64453125 17.68359375 C4.68578125 18.61171875 4.72703125 19.53984375 4.76953125 20.49609375 C4.60777269 24.62093695 3.25669439 26.54899798 0.64453125 29.68359375 C-0.34546875 29.68359375 -1.33546875 29.68359375 -2.35546875 29.68359375 C-1.72529277 26.74277252 -0.69531139 24.36327902 0.64453125 21.68359375 C0.64453125 21.02359375 0.64453125 20.36359375 0.64453125 19.68359375 C-2.65546875 19.68359375 -5.95546875 19.68359375 -9.35546875 19.68359375 C-14.48537812 11.5001669 -14.48537812 11.5001669 -13.91796875 7.93359375 C-13.40234375 7.19109375 -12.88671875 6.44859375 -12.35546875 5.68359375 C-11.88109375 4.75546875 -11.40671875 3.82734375 -10.91796875 2.87109375 C-7.36236911 -0.16417423 -4.58464146 -0.20253436 0 0 Z " fill="#060606" transform="translate(137.35546875,207.31640625)"/>
<path d="M0 0 C3.64751591 0.28057815 5.34775143 1.07331357 8.25 3.25 C10.73386059 6.97579089 10.6304212 8.83711402 10.25 13.25 C8.98001681 16.10746217 7.9661997 17.73137263 5.4375 19.5625 C2.48367076 20.49084633 0.334218 20.62765935 -2.75 20.25 C-5.44990662 18.45006226 -7.2918865 17.166227 -8.75 14.25 C-9.25698467 9.09565588 -9.25698467 9.09565588 -8.75 6.25 C-6.3125 3.3125 -6.3125 3.3125 -3.75 1.25 C-2.75 0.25 -2.75 0.25 0 0 Z " fill="#0E0E0E" transform="translate(340.75,209.75)"/>
<path d="M0 0 C3.64751591 0.28057815 5.34775143 1.07331357 8.25 3.25 C10.73386059 6.97579089 10.6304212 8.83711402 10.25 13.25 C8.98001681 16.10746217 7.9661997 17.73137263 5.4375 19.5625 C2.48367076 20.49084633 0.334218 20.62765935 -2.75 20.25 C-5.44990662 18.45006226 -7.2918865 17.166227 -8.75 14.25 C-9.25698467 9.09565588 -9.25698467 9.09565588 -8.75 6.25 C-6.3125 3.3125 -6.3125 3.3125 -3.75 1.25 C-2.75 0.25 -2.75 0.25 0 0 Z " fill="#0E0E0E" transform="translate(303.75,209.75)"/>
<path d="M0 0 C2.97 0 5.94 0 9 0 C9.33 0.66 9.66 1.32 10 2 C10.66 1.34 11.32 0.68 12 0 C17.23593721 -0.5570146 17.23593721 -0.5570146 19.62890625 1.1875 C22.39570173 4.84503021 22.34766511 9.56252891 22 14 C20.62909224 16.66087631 19.26122671 17.95938078 17 20 C14.20171644 19.61402985 13.1794116 19.19863427 11.25 17.0625 C10 15 10 15 10 13 C9.38125 12.690625 8.7625 12.38125 8.125 12.0625 C4 10 4 10 3 7.1875 C2.67 6.135625 2.34 5.08375 2 4 C1.34 2.68 0.68 1.36 0 0 Z " fill="#0F2727" transform="translate(190,227)"/>
<path d="M0 0 C8 0 8 0 10.5 1.0625 C12.80056475 4.0340628 12.38385574 6.35337051 12 10 C11 12.4375 11 12.4375 10 14 C10.495 14.61875 10.99 15.2375 11.5 15.875 C13 18 13 18 13 20 C10.6875 20.3125 10.6875 20.3125 8 20 C6.1875 17.5 6.1875 17.5 5 15 C4.67 16.65 4.34 18.3 4 20 C2.68 20 1.36 20 0 20 C0 13.4 0 6.8 0 0 Z " fill="#0A0A0A" transform="translate(280,210)"/>
<path d="M0 0 C2.16027108 2.31457616 2.99147625 3.97442875 4 7 C4.66 5.68 5.32 4.36 6 3 C6.18616813 5.79252199 6.34702616 8.24514617 6 11 C4.1875 13 4.1875 13 2 15 C0.78588222 17.6212752 -0.08404305 20.25212916 -1 23 C-4.39152126 20.26622832 -5.7631322 16.54494141 -7.375 12.625 C-7.67277344 11.965 -7.97054687 11.305 -8.27734375 10.625 C-9.69056819 7.19776006 -10.23836608 5.57361643 -8.7890625 2.0859375 C-5.86797095 -1.31987667 -4.1848388 -1.32690011 0 0 Z " fill="#4AAFB2" transform="translate(167,212)"/>
<path d="M0 0 C2.29296875 0.0078125 2.29296875 0.0078125 5 1 C6.38668321 3.68914271 7.37664034 6.0353203 8.3125 8.875 C8.57611328 9.60847656 8.83972656 10.34195313 9.11132812 11.09765625 C10.1877637 14.16759459 11 16.72661348 11 20 C9.68 20 8.36 20 7 20 C6.67 19.01 6.34 18.02 6 17 C3.36 16.67 0.72 16.34 -2 16 C-2.33 17.32 -2.66 18.64 -3 20 C-4.32 20 -5.64 20 -7 20 C-5.07443364 13.14381674 -2.7527517 6.56747868 0 0 Z " fill="#0B0B0B" transform="translate(245,210)"/>
<path d="M0 0 C1.11439453 0.00322266 2.22878906 0.00644531 3.37695312 0.00976562 C4.48748047 -0.00634766 5.59800781 -0.02246094 6.7421875 -0.0390625 C8.33836914 -0.0400293 8.33836914 -0.0400293 9.96679688 -0.04101562 C11.43234009 -0.04548706 11.43234009 -0.04548706 12.92749023 -0.05004883 C15.81068589 0.37728846 16.71081778 1.02361432 18.43945312 3.32226562 C18.43945312 3.65226563 18.43945312 3.98226562 18.43945312 4.32226562 C14.4414942 5.27846296 10.73141391 5.42622482 6.62695312 5.38476562 C5.46550781 5.37574219 4.3040625 5.36671875 3.10742188 5.35742188 C2.22699219 5.34582031 1.3465625 5.33421875 0.43945312 5.32226562 C0.10945312 6.97226563 -0.22054687 8.62226563 -0.56054688 10.32226562 C-3.86054688 10.32226562 -7.16054687 10.32226562 -10.56054688 10.32226562 C-10.75585938 4.26757812 -10.75585938 4.26757812 -10.56054688 2.32226562 C-7.46542704 -0.77285421 -4.22756278 0.02820084 0 0 Z " fill="#060F10" transform="translate(183.560546875,211.677734375)"/>
<path d="M0 0 C2.875 1.875 2.875 1.875 5 4 C5 4.66 5 5.32 5 6 C1.66666667 5.33333333 -1.66666667 4.66666667 -5 4 C-4.363603 7.0836385 -4.363603 7.0836385 -2.1875 7.9140625 C-1.465625 8.14867187 -0.74375 8.38328125 0 8.625 C3.93048128 9.93048128 3.93048128 9.93048128 5 11 C5.3125 13.875 5.3125 13.875 5 17 C2.67097984 19.79482419 1.12036325 19.98495459 -2.5 20.4375 C-6 20 -6 20 -8.4375 18.1875 C-10 16 -10 16 -10 13 C-8.68 13 -7.36 13 -6 13 C-5.67 13.66 -5.34 14.32 -5 15 C-1.97065509 15.65772428 -1.97065509 15.65772428 1 16 C0.67 15.01 0.34 14.02 0 13 C-1.80077673 12.0534089 -1.80077673 12.0534089 -3.9375 11.4375 C-6.72850228 10.54093484 -7.87774645 10.12225355 -10 8 C-9.79013448 5.27174823 -9.3151619 3.48103659 -7.8125 1.1875 C-5.05641317 -0.61821206 -3.22701096 -0.45178153 0 0 Z " fill="#171717" transform="translate(385,210)"/>
<path d="M0 0 C2.79998966 0.50256225 3.69857595 1.24096435 5.4375 3.4375 C5.7675 2.4475 6.0975 1.4575 6.4375 0.4375 C7.0975 0.4375 7.7575 0.4375 8.4375 0.4375 C8.581875 1.18 8.72625 1.9225 8.875 2.6875 C9.33937492 4.95777739 9.85613569 7.19509479 10.4375 9.4375 C10.1075 9.4375 9.7775 9.4375 9.4375 9.4375 C9.1075 11.0875 8.7775 12.7375 8.4375 14.4375 C7.7775 14.4375 7.1175 14.4375 6.4375 14.4375 C6.1075 13.4475 5.7775 12.4575 5.4375 11.4375 C5.086875 11.953125 4.73625 12.46875 4.375 13 C2.4375 14.4375 2.4375 14.4375 -1.125 14.3125 C-4.5625 13.4375 -4.5625 13.4375 -6.5625 10.4375 C-7.02899698 6.78327364 -7.03246298 5.09892938 -4.875 2.0625 C-2.5625 0.4375 -2.5625 0.4375 0 0 Z " fill="#AEAEAE" transform="translate(277.5625,238.5625)"/>
<path d="M0 0 C9.82608696 0 9.82608696 0 12 2 C12.875 5.4375 12.875 5.4375 13 9 C12.01 10.485 12.01 10.485 11 12 C7.375 12.6875 7.375 12.6875 4 13 C4 15.31 4 17.62 4 20 C2.68 20 1.36 20 0 20 C0 13.4 0 6.8 0 0 Z " fill="#060606" transform="translate(317,210)"/>
<path d="M0 0 C4.62 0 9.24 0 14 0 C14 0.99 14 1.98 14 3 C7.565 3.495 7.565 3.495 1 4 C1 7.3 1 10.6 1 14 C-6.71484375 14.09765625 -6.71484375 14.09765625 -9 14 C-10 13 -10 13 -10.09765625 10.49609375 C-10.08605469 9.48675781 -10.07445312 8.47742188 -10.0625 7.4375 C-10.05347656 6.42558594 -10.04445312 5.41367188 -10.03515625 4.37109375 C-10.02355469 3.58863281 -10.01195312 2.80617187 -10 2 C-6.7 2 -3.4 2 0 2 C0 1.34 0 0.68 0 0 Z " fill="#4BACB0" transform="translate(183,238)"/>
<path d="M0 0 C11.625 -0.25 11.625 -0.25 15 2 C15.36328125 3.875 15.36328125 3.875 15.3125 6 C15.30863281 6.70125 15.30476562 7.4025 15.30078125 8.125 C15 10 15 10 13 12 C9.9609375 12.1953125 9.9609375 12.1953125 6.375 12.125 C5.18648437 12.10695312 3.99796875 12.08890625 2.7734375 12.0703125 C1.85820312 12.04710937 0.94296875 12.02390625 0 12 C0 8.04 0 4.08 0 0 Z " fill="#225557" transform="translate(217,212)"/>
<path d="M0 0 C2.5 1.9375 2.5 1.9375 4 4 C4 4.66 4 5.32 4 6 C2.35 6 0.7 6 -1 6 C-1 5.34 -1 4.68 -1 4 C-4.41642759 3.74984127 -4.41642759 3.74984127 -8 4 C-10.35014158 6.837578 -10.35014158 6.837578 -9.6875 10.125 C-9.29355679 12.88086422 -9.29355679 12.88086422 -8 14 C-5.66702567 14.04092937 -3.33294775 14.04241723 -1 14 C-1 13.34 -1 12.68 -1 12 C0.65 12 2.3 12 4 12 C2.98949988 14.66404576 2.02766415 15.97707828 -0.1875 17.8125 C-3.98165538 19.41447672 -6.05868098 19.12609115 -10 18 C-13.61932815 15.38176262 -14.82190418 13.97952699 -15.625 9.5625 C-14.80612961 4.89493875 -13.32246207 3.32246207 -10 0 C-6.74494126 -1.62752937 -3.40807702 -0.88906357 0 0 Z " fill="#121212" transform="translate(273,211)"/>
<path d="M0 0 C3.37013879 0.67402776 4.51677007 1.7087875 6.5 4.5 C7.11793165 8.20758991 7.00197249 9.7935202 4.8125 12.875 C2.5 14.5 2.5 14.5 0 15 C-3.37013879 14.32597224 -4.51677007 13.2912125 -6.5 10.5 C-7.11793165 6.79241009 -7.00197249 5.2064798 -4.8125 2.125 C-2.5 0.5 -2.5 0.5 0 0 Z " fill="#B4B4B4" transform="translate(262.5,238.5)"/>
<path d="M0 0 C1.32 0.99 2.64 1.98 4 3 C3.25 4.92578125 3.25 4.92578125 2 7 C0.1875 7.79296875 0.1875 7.79296875 -2 8.1875 C-3.18916016 8.40599609 -3.18916016 8.40599609 -4.40234375 8.62890625 C-8.59042075 9.22720296 -12.78307488 9.66546314 -17 10 C-17.33 10.99 -17.66 11.98 -18 13 C-21.3 13 -24.6 13 -28 13 C-28 11.68 -28 10.36 -28 9 C-24.7 9 -21.4 9 -18 9 C-17.67 7.35 -17.34 5.7 -17 4 C-16.10796875 3.93941406 -15.2159375 3.87882813 -14.296875 3.81640625 C-12.54117188 3.69072266 -12.54117188 3.69072266 -10.75 3.5625 C-9.00976562 3.44068359 -9.00976562 3.44068359 -7.234375 3.31640625 C-4.69022624 3.06752213 -2.44046752 2.71885058 0 2 C0 1.34 0 0.68 0 0 Z " fill="#1D4648" transform="translate(201,213)"/>
<path d="M0 0 C0.1953125 1.98567708 0.390625 3.97135417 0.5859375 5.95703125 C0.92665391 8.29988142 0.92665391 8.29988142 3 11 C-1.95 11 -6.9 11 -12 11 C-12 7.7 -12 4.4 -12 1 C-7.9472484 0.01751476 -4.16138263 -0.08159574 0 0 Z " fill="#337C7F" transform="translate(196,241)"/>
<path d="M0 0 C1.66748747 2.50123121 2.89954361 4.77676357 4.125 7.5 C4.47820312 8.2734375 4.83140625 9.046875 5.1953125 9.84375 C6 12 6 12 6 15 C5.41992188 15.18175781 4.83984375 15.36351562 4.2421875 15.55078125 C-0.39147293 17.0418106 -4.69762355 18.68333576 -9 21 C-8.38367054 16.04001528 -6.20164371 12.06328034 -3.9375 7.6875 C-3.37192383 6.57665039 -3.37192383 6.57665039 -2.79492188 5.44335938 C-1.86871843 3.62612478 -0.93509371 1.81267596 0 0 Z " fill="#1C3A3B" transform="translate(157,217)"/>
<path d="M0 0 C0.66 0.33 1.32 0.66 2 1 C2 3.97 2 6.94 2 10 C7.28 10 12.56 10 18 10 C18 10.33 18 10.66 18 11 C13.71 11 9.42 11 5 11 C5 11.66 5 12.32 5 13 C1.7 13 -1.6 13 -5 13 C-5 16.3 -5 19.6 -5 23 C-7.08229108 19.87656337 -7.23770457 19.46147078 -6.9765625 15.98828125 C-6.925 15.23095703 -6.8734375 14.47363281 -6.8203125 13.69335938 C-6.75585938 12.90767578 -6.69140625 12.12199219 -6.625 11.3125 C-6.56828125 10.51521484 -6.5115625 9.71792969 -6.453125 8.89648438 C-6.31183972 6.93026419 -6.15720094 4.96501176 -6 3 C-4.68 2.34 -3.36 1.68 -2 1 C-1.67 1.33 -1.34 1.66 -1 2 C-0.67 1.34 -0.34 0.68 0 0 Z " fill="#3B898C" transform="translate(178,227)"/>
<path d="M0 0 C1.875 0.3125 1.875 0.3125 4 1 C6 4 6 4 5.75 7.0625 C5 10 5 10 3 12 C0.0906442 12.14517744 -2.719946 12.18630796 -5.625 12.125 C-6.42679688 12.11597656 -7.22859375 12.10695312 -8.0546875 12.09765625 C-10.03658523 12.07406223 -12.01832981 12.03819065 -14 12 C-12.03578804 10.45669061 -10.22008607 9.10332285 -7.953125 8.0390625 C-5.6393536 6.80813612 -4.39930574 5.39914795 -2.75 3.375 C-2.22921875 2.74335938 -1.7084375 2.11171875 -1.171875 1.4609375 C-0.78515625 0.97882813 -0.3984375 0.49671875 0 0 Z " fill="#43A1A4" transform="translate(227,241)"/>
<path d="M0 0 C1.32 0 2.64 0 4 0 C4 5.28 4 10.56 4 16 C6.31 16 8.62 16 11 16 C11 17.32 11 18.64 11 20 C7.37 20 3.74 20 0 20 C0 13.4 0 6.8 0 0 Z " fill="#020202" transform="translate(354,210)"/>
<path d="M0 0 C1.98 0 3.96 0 6 0 C8 2 8 2 8.1953125 4.6015625 C8.17210937 5.59929687 8.14890625 6.59703125 8.125 7.625 C8.10695313 8.62789062 8.08890625 9.63078125 8.0703125 10.6640625 C8.03550781 11.82035156 8.03550781 11.82035156 8 13 C6 14 6 14 0 14 C0 9.38 0 4.76 0 0 Z " fill="#505050" transform="translate(383,239)"/>
<path d="M0 0 C2.9375 0.8125 2.9375 0.8125 4.9375 2.8125 C4.75 6.3125 4.75 6.3125 3.9375 9.8125 C0.9375 11.8125 0.9375 11.8125 -1.625 11.5625 C-4.0625 10.8125 -4.0625 10.8125 -6.0625 8.8125 C-6.39552312 5.6820827 -6.53921956 3.63351702 -4.9375 0.875 C-3.0625 -0.1875 -3.0625 -0.1875 0 0 Z " fill="#EDEDED" transform="translate(342.0625,214.1875)"/>
<path d="M0 0 C2.9375 0.8125 2.9375 0.8125 4.9375 2.8125 C4.75 6.3125 4.75 6.3125 3.9375 9.8125 C0.9375 11.8125 0.9375 11.8125 -1.625 11.5625 C-4.0625 10.8125 -4.0625 10.8125 -6.0625 8.8125 C-6.39552312 5.6820827 -6.53921956 3.63351702 -4.9375 0.875 C-3.0625 -0.1875 -3.0625 -0.1875 0 0 Z " fill="#EDEDED" transform="translate(305.0625,214.1875)"/>
<path d="M0 0 C0 3.96 0 7.92 0 12 C3.63 12 7.26 12 11 12 C11 12.33 11 12.66 11 13 C9.78763672 13.05607422 9.78763672 13.05607422 8.55078125 13.11328125 C7.48214844 13.17902344 6.41351563 13.24476563 5.3125 13.3125 C3.72888672 13.39951172 3.72888672 13.39951172 2.11328125 13.48828125 C-1.50805158 13.88707664 -1.50805158 13.88707664 -6 17 C-6.66 12.38 -7.32 7.76 -8 3 C-1.125 0 -1.125 0 0 0 Z " fill="#407C7E" transform="translate(217,212)"/>
<path d="M0 0 C1.98 0 3.96 0 6 0 C7.77201559 1.77201559 7 4.60574059 7 7 C7.20625 7.9075 7.4125 8.815 7.625 9.75 C7.74875 10.4925 7.8725 11.235 8 12 C7.34 12.66 6.68 13.32 6 14 C4.02 14 2.04 14 0 14 C0 9.38 0 4.76 0 0 Z " fill="#222222" transform="translate(239,239)"/>
<path d="M0 0 C-0.99 1.485 -0.99 1.485 -2 3 C-2.16713569 5.62531524 -2.16713569 5.62531524 -2 8 C-2.99 8.495 -2.99 8.495 -4 9 C-4 8.01 -4 7.02 -4 6 C-8.95 6 -13.9 6 -19 6 C-19 4.35 -19 2.7 -19 1 C-16.58440932 0.63645961 -14.16805703 0.28389449 -11.75 -0.0625 C-11.06808594 -0.16626953 -10.38617188 -0.27003906 -9.68359375 -0.37695312 C-6.2150075 -0.86524925 -3.33088887 -1.22762141 0 0 Z " fill="#4A8385" transform="translate(203,221)"/>
<path d="M0 0 C2.75 -0.3125 2.75 -0.3125 6 0 C8.375 2.1875 8.375 2.1875 10 5 C10 6.65 10 8.3 10 10 C6.7 10 3.4 10 0 10 C0 6.7 0 3.4 0 0 Z " fill="#205052" transform="translate(184,227)"/>
<path d="M0 0 C6.875 0.875 6.875 0.875 8 2 C8.27314815 7.73611111 8.27314815 7.73611111 8 10 C6 12 6 12 3.375 12.125 C2.59125 12.08375 1.8075 12.0425 1 12 C0.01751476 7.9472484 -0.08159574 4.16138263 0 0 Z " fill="#112020" transform="translate(224,212)"/>
<path d="M0 0 C1.32 0 2.64 0 4 0 C4 6.6 4 13.2 4 20 C2.68 20 1.36 20 0 20 C0 13.4 0 6.8 0 0 Z " fill="#0A0A0A" transform="translate(368,210)"/>
<path d="M0 0 C0.99 0.33 1.98 0.66 3 1 C3.33 1.99 3.66 2.98 4 4 C0.00204108 4.95619733 -3.70803922 5.1039592 -7.8125 5.0625 C-8.97394531 5.05347656 -10.13539063 5.04445312 -11.33203125 5.03515625 C-12.21246094 5.02355469 -13.09289062 5.01195312 -14 5 C-14.33 6.65 -14.66 8.3 -15 10 C-18.3 10 -21.6 10 -25 10 C-25 9.01 -25 8.02 -25 7 C-21.7 7 -18.4 7 -15 7 C-15 5.68 -15 4.36 -15 3 C-10.05 2.67 -5.1 2.34 0 2 C0 1.34 0 0.68 0 0 Z " fill="#143132" transform="translate(198,212)"/>
<path d="M0 0 C2.97 0 5.94 0 9 0 C9.81720493 3.26881973 10.11073543 5.46999069 10.0625 8.75 C10.05347656 9.54921875 10.04445312 10.3484375 10.03515625 11.171875 C10.02355469 11.77515625 10.01195312 12.3784375 10 13 C4 10 4 10 3 7.1875 C2.67 6.135625 2.34 5.08375 2 4 C1.34 2.68 0.68 1.36 0 0 Z " fill="#17393A" transform="translate(190,227)"/>
<path d="M0 0 C2.20602867 -0.12165599 3.98436953 -0.04403402 6.125 0.5078125 C8.1875 2.6328125 8.1875 2.6328125 9.125 5.5078125 C8.8125 8.8203125 8.8125 8.8203125 8.125 11.5078125 C7.135 11.5078125 6.145 11.5078125 5.125 11.5078125 C3.03269231 7.07704327 3.03269231 7.07704327 3.5 4.1953125 C3.70625 3.6384375 3.9125 3.0815625 4.125 2.5078125 C3.75375 3.0028125 3.3825 3.4978125 3 4.0078125 C0.37805607 6.10536764 -1.61342472 5.72525085 -4.875 5.5078125 C-2.99649533 0.81155082 -2.99649533 0.81155082 0 0 Z " fill="#F3F3F3" transform="translate(122.875,236.4921875)"/>
<path d="M0 0 C0 4.58234046 -0.5180758 5.05508122 -3.5 8.25 C-4.1496875 8.95640625 -4.799375 9.6628125 -5.46875 10.390625 C-5.9740625 10.92171875 -6.479375 11.4528125 -7 12 C-7.66 11.67 -8.32 11.34 -9 11 C-9.35897436 4.77777778 -9.35897436 4.77777778 -7.875 1.5625 C-5.24871143 -0.6260738 -3.31446363 -0.29461899 0 0 Z " fill="#0A1A1A" transform="translate(208,227)"/>
<path d="M0 0 C2.3125 0.1875 2.3125 0.1875 4 1 C3.48964169 5.3890815 2.47785723 8.33708062 0 12 C-0.99 11.67 -1.98 11.34 -3 11 C-4.1875 7.9375 -4.1875 7.9375 -5 5 C-2.75 2.4375 -2.75 2.4375 0 0 Z " fill="#51C6CA" transform="translate(162,211)"/>
<path d="M0 0 C2.97 0 5.94 0 9 0 C10.625 2.6875 10.625 2.6875 12 6 C11.1875 8.875 11.1875 8.875 10 11 C9.34 11 8.68 11 8 11 C6.38050989 8.42786866 5.95591249 7.32330841 6.375 4.25 C6.58125 3.5075 6.7875 2.765 7 2 C6.443125 2.33 5.88625 2.66 5.3125 3 C2.69715478 4.1309601 0.8193354 4.15662974 -2 4 C-1.34 2.68 -0.68 1.36 0 0 Z " fill="#FBFBFB" transform="translate(130,211)"/>
<path d="M0 0 C0.86625 0.144375 1.7325 0.28875 2.625 0.4375 C-3.68031845 9.55962738 -3.68031845 9.55962738 -8.375 11.4375 C-11.6875 11.625 -11.6875 11.625 -14.375 11.4375 C-13.67375 10.921875 -12.9725 10.40625 -12.25 9.875 C-9.8657371 7.85355971 -8.31039176 6.12374179 -6.4375 3.6875 C-4.12150909 0.86620198 -3.81541239 0.4945905 0 0 Z " fill="#38898C" transform="translate(224.375,240.5625)"/>
<path d="M0 0 C0.66 0 1.32 0 2 0 C2 2.31 2 4.62 2 7 C3.65 7 5.3 7 7 7 C7 4.69 7 2.38 7 0 C7.66 0 8.32 0 9 0 C9 4.62 9 9.24 9 14 C8.34 14 7.68 14 7 14 C7 12.02 7 10.04 7 8 C5.35 8 3.7 8 2 8 C2 9.98 2 11.96 2 14 C1.34 14 0.68 14 0 14 C0 9.38 0 4.76 0 0 Z " fill="#676767" transform="translate(307,239)"/>
<path d="M0 0 C0.53625 0.474375 1.0725 0.94875 1.625 1.4375 C4.42842836 3.28186076 6.69620258 3.62456847 10 4 C10.33 3.34 10.66 2.68 11 2 C11 2.99 11 3.98 11 5 C10.41992188 5.18175781 9.83984375 5.36351562 9.2421875 5.55078125 C4.60852707 7.0418106 0.30237645 8.68333576 -4 11 C-3.39301257 6.87248551 -1.96189209 3.6678852 0 0 Z " fill="#2E6466" transform="translate(152,227)"/>
<path d="M0 0 C0.99 0.33 1.98 0.66 3 1 C1.59103494 3.90883109 0.15024236 6.57299378 -2 9 C-5.8125 9.5 -5.8125 9.5 -9 9 C-9.33 8.01 -9.66 7.02 -10 6 C-7.53264116 3.53264116 -5.27828479 3.0927616 -2 2 C-1.34 1.34 -0.68 0.68 0 0 Z " fill="#4AB1B5" transform="translate(155,243)"/>
<path d="M0 0 C-2.07249019 4.14498038 -6.65055772 5.29800116 -10.8125 6.6875 C-12.20646093 7.13092966 -13.6016978 7.57045619 -15 8 C-14.41097471 4.97887029 -14.08347482 4.08347482 -11.8125 1.8125 C-7.72267461 -0.82316525 -4.64094239 -1.5469808 0 0 Z " fill="#409CA0" transform="translate(159,241)"/>
<path d="M0 0 C1.32 0 2.64 0 4 0 C6.875 6.625 6.875 6.625 8 10 C5.36 10 2.72 10 0 10 C0 6.7 0 3.4 0 0 Z " fill="#3E999D" transform="translate(184,242)"/>
<path d="M0 0 C1.65 0.33 3.3 0.66 5 1 C4.04367001 2.29315061 3.08486149 3.58446853 2.125 4.875 C1.59132812 5.59429687 1.05765625 6.31359375 0.5078125 7.0546875 C-1 9 -1 9 -3 11 C-6.125 10.625 -6.125 10.625 -9 10 C-8.2575 9.278125 -7.515 8.55625 -6.75 7.8125 C-4.30709485 5.31407427 -2.1318953 2.76356798 0 0 Z " fill="#2F6E71" transform="translate(216,240)"/>
<path d="M0 0 C0.33 0 0.66 0 1 0 C1.18616813 2.79252199 1.34702616 5.24514617 1 8 C-0.8125 10 -0.8125 10 -3 12 C-4.21411778 14.6212752 -5.08404305 17.25212916 -6 20 C-6.66 19.34 -7.32 18.68 -8 18 C-7.68429116 13.3275091 -6.53297844 8.25034017 -3 5 C-2.01 5 -1.02 5 0 5 C0 3.35 0 1.7 0 0 Z " fill="#489092" transform="translate(172,215)"/>
<path d="M0 0 C0.66 0 1.32 0 2 0 C2.69906942 1.59915881 3.38389468 3.20455045 4.0625 4.8125 C4.44535156 5.70582031 4.82820313 6.59914062 5.22265625 7.51953125 C6 10 6 10 5 13 C4.67 11.68 4.34 10.36 4 9 C2.02 9 0.04 9 -2 9 C-2.33 10.32 -2.66 11.64 -3 13 C-4.23593891 9.29218328 -3.5678132 8.32489747 -2.0625 4.8125 C-1.68222656 3.91144531 -1.30195313 3.01039063 -0.91015625 2.08203125 C-0.60980469 1.39496094 -0.30945313 0.70789063 0 0 Z " fill="#6A6A6A" transform="translate(322,240)"/>
<path d="M0 0 C0.99 0.33 1.98 0.66 3 1 C2.25 6.75 2.25 6.75 0 9 C-3.625 9.125 -3.625 9.125 -7 9 C-6.02180976 7.68677212 -5.0424189 6.37443848 -4.0625 5.0625 C-3.51722656 4.33160156 -2.97195312 3.60070312 -2.41015625 2.84765625 C-1 1 -1 1 0 0 Z " fill="#53B8BC" transform="translate(230,244)"/>
<path d="M0 0 C0.96846689 2.61486062 1.04559628 3.8442127 0.25 6.5625 C-0.97247734 8.94633082 -1.79752175 10.47520736 -4 12 C-6.125 11.8125 -6.125 11.8125 -8 11 C-8.33 10.34 -8.66 9.68 -9 9 C-8.51789063 8.60167969 -8.03578125 8.20335937 -7.5390625 7.79296875 C-6.90742188 7.26316406 -6.27578125 6.73335937 -5.625 6.1875 C-4.99851563 5.66542969 -4.37203125 5.14335937 -3.7265625 4.60546875 C-1.7778952 2.91774261 -1.7778952 2.91774261 0 0 Z " fill="#1D4648" transform="translate(211,235)"/>
<path d="M0 0 C0 2.97 0 5.94 0 9 C-2.31 9.33 -4.62 9.66 -7 10 C-6.72816627 6.01310533 -6.45593786 4.43314097 -3.5 1.625 C-1 0 -1 0 0 0 Z " fill="#49B4B8" transform="translate(207,218)"/>
<path d="M0 0 C0.66 0.66 1.32 1.32 2 2 C0.33333333 7 -1.33333333 12 -3 17 C-3.66 16.34 -4.32 15.68 -5 15 C-4.79142129 8.84692794 -3.31982903 5.14038044 0 0 Z " fill="#32797B" transform="translate(171,222)"/>
<path d="M0 0 C0.33 0 0.66 0 1 0 C1 4.62 1 9.24 1 14 C-0.32 14 -1.64 14 -3 14 C-3 10.7 -3 7.4 -3 4 C-2.01 4 -1.02 4 0 4 C0 2.68 0 1.36 0 0 Z " fill="#347173" transform="translate(183,223)"/>
<path d="M0 0 C1.32 0.99 2.64 1.98 4 3 C2.4422692 6.82352106 0.08404742 9.29205593 -3 12 C-3.99 12 -4.98 12 -6 12 C-4.81145707 9.42482365 -3.4794298 7.23445558 -1.875 4.875 C0.18208926 2.29286023 0.18208926 2.29286023 0 0 Z " fill="#285B5D" transform="translate(212,237)"/>
<path d="M0 0 C0.33 0 0.66 0 1 0 C1.58232014 3.32754368 1.43675927 5.34486109 -0.453125 8.1796875 C-2.22626341 10.27318284 -3.90185352 12.22982931 -6 14 C-6.99 14 -7.98 14 -9 14 C-7.31268143 10.29115966 -5.0622868 7.6722904 -2.33984375 4.68359375 C-0.78521084 2.92781556 -0.78521084 2.92781556 0 0 Z " fill="#163637" transform="translate(210,230)"/>
<path d="M0 0 C0.99 0 1.98 0 3 0 C3.33 3.96 3.66 7.92 4 12 C2.68 12 1.36 12 0 12 C0 8.04 0 4.08 0 0 Z " fill="#1A4042" transform="translate(221,212)"/>
<path d="M0 0 C1.32 0 2.64 0 4 0 C4 3.3 4 6.6 4 10 C2.68 10 1.36 10 0 10 C0 6.7 0 3.4 0 0 Z " fill="#265E60" transform="translate(184,227)"/>
<path d="M0 0 C3.3 0 6.6 0 10 0 C10 1.32 10 2.64 10 4 C6.7 4 3.4 4 0 4 C0 2.68 0 1.36 0 0 Z " fill="#1C4546" transform="translate(173,222)"/>
<path d="M0 0 C1.32 0 2.64 0 4 0 C4 3.3 4 6.6 4 10 C2.68 9.67 1.36 9.34 0 9 C0 6.03 0 3.06 0 0 Z " fill="#4FBDC1" transform="translate(173,242)"/>
<path d="M0 0 C4.29 0 8.58 0 13 0 C13 0.99 13 1.98 13 3 C8.71 3 4.42 3 0 3 C0 2.01 0 1.02 0 0 Z " fill="#FDFDFD" transform="translate(184,238)"/>
<path d="M0 0 C4.29 0 8.58 0 13 0 C13 0.99 13 1.98 13 3 C8.71 3 4.42 3 0 3 C0 2.01 0 1.02 0 0 Z " fill="#FEFEFE" transform="translate(184,223)"/>
<path d="M0 0 C-3.80273074 2.38171031 -7.89003197 2.65510945 -12.25 3.125 C-12.99507812 3.21136719 -13.74015625 3.29773438 -14.5078125 3.38671875 C-16.33777846 3.59786867 -18.16879879 3.79984545 -20 4 C-20 3.01 -20 2.02 -20 1 C-13.28837062 0.11978631 -6.76594019 -0.11381955 0 0 Z " fill="#25595B" transform="translate(203,219)"/>
<path d="M0 0 C0.33 4.62 0.66 9.24 1 14 C0.01 14.66 -0.98 15.32 -2 16 C-2.66 11.38 -3.32 6.76 -4 2 C-1 0 -1 0 0 0 Z " fill="#3A8A8D" transform="translate(213,213)"/>
<path d="M0 0 C-1 2.4375 -1 2.4375 -3 5 C-5.72714162 5.76381481 -8.14167178 5.85942648 -11 6 C-5.28169014 -1.76056338 -5.28169014 -1.76056338 0 0 Z " fill="#337A7C" transform="translate(163,233)"/>
<path d="M0 0 C0.66 0 1.32 0 2 0 C2 3.96 2 7.92 2 12 C3.32 12 4.64 12 6 12 C6 12.66 6 13.32 6 14 C4.02 14 2.04 14 0 14 C0 9.38 0 4.76 0 0 Z " fill="#636363" transform="translate(249,239)"/>
<path d="M0 0 C1.98 0 3.96 0 6 0 C6.99 1.98 7.98 3.96 9 6 C7.02 6 5.04 6 3 6 C2.01 4.02 1.02 2.04 0 0 Z " fill="#F5F5F5" transform="translate(127,218)"/>
<path d="M0 0 C1.32 0 2.64 0 4 0 C3.82374165 2.37948772 3.30280227 3.70225849 1.59765625 5.37890625 C0.09350908 6.62115486 -1.45129851 7.81376056 -3 9 C-2.25 2.25 -2.25 2.25 0 0 Z " fill="#040B0B" transform="translate(202,227)"/>
<path d="M0 0 C0.33 0.66 0.66 1.32 1 2 C3.31 1.34 5.62 0.68 8 0 C8.33 1.98 8.66 3.96 9 6 C3.375 6.25 3.375 6.25 0 4 C0 2.68 0 1.36 0 0 Z " fill="#20494B" transform="translate(153,225)"/>
<path d="M0 0 C0.66 0 1.32 0 2 0 C2.33 0.99 2.66 1.98 3 3 C2.401875 3.495 1.80375 3.99 1.1875 4.5 C-1.69651861 7.79602127 -2.61871542 10.85614626 -4 15 C-6 12 -6 12 -7 9 C-6.21625 8.2575 -5.4325 7.515 -4.625 6.75 C-2.43495469 4.45566682 -1.17268614 2.87841142 0 0 Z " fill="#44A0A3" transform="translate(168,217)"/>
<path d="M0 0 C1.98 0 3.96 0 6 0 C6.66 1.98 7.32 3.96 8 6 C6.35 6 4.7 6 3 6 C2.01 4.02 1.02 2.04 0 0 Z " fill="#FEFEFE" transform="translate(118,245)"/>
<path d="M0 0 C0 0.66 0 1.32 0 2 C-5.05002222 3.03590199 -9.87416389 3.10251672 -15 3 C-15 2.34 -15 1.68 -15 1 C-9.94997778 -0.03590199 -5.12583611 -0.10251672 0 0 Z " fill="#0C1E1F" transform="translate(198,212)"/>
<path d="M0 0 C1.65 0 3.3 0 5 0 C4.01 0.495 4.01 0.495 3 1 C3 4.63 3 8.26 3 12 C2.34 12 1.68 12 1 12 C0.01751476 7.9472484 -0.08159574 4.16138263 0 0 Z " fill="#152E2F" transform="translate(224,212)"/>
<path d="M0 0 C2.475 0.495 2.475 0.495 5 1 C4.67 2.98 4.34 4.96 4 7 C2.68 7 1.36 7 0 7 C0 4.69 0 2.38 0 0 Z " fill="#D7D7D7" transform="translate(321,213)"/>
<path d="M0 0 C0.66 0 1.32 0 2 0 C2 4.62 2 9.24 2 14 C0.68 12.68 -0.64 11.36 -2 10 C-1.953125 7.421875 -1.953125 7.421875 -1.25 4.75 C-1.02828125 3.85796875 -0.8065625 2.9659375 -0.578125 2.046875 C-0.29195313 1.03367188 -0.29195313 1.03367188 0 0 Z " fill="#666666" transform="translate(341,239)"/>
<path d="M0 0 C2.475 0.495 2.475 0.495 5 1 C5 2.32 5 3.64 5 5 C3.35 5.33 1.7 5.66 0 6 C0 4.02 0 2.04 0 0 Z " fill="#E4E4E4" transform="translate(240,246)"/>
<path d="M0 0 C3.3 0 6.6 0 10 0 C10 0.99 10 1.98 10 3 C6.7 3 3.4 3 0 3 C0 2.01 0 1.02 0 0 Z " fill="#0D2021" transform="translate(173,216)"/>
<path d="M0 0 C0 3.85694541 -1.14298872 4.80111609 -3.625 7.6875 C-4.29789063 8.49574219 -4.97078125 9.30398437 -5.6640625 10.13671875 C-8.61137537 12.48766898 -10.32382089 12.36340453 -14 12 C-12.07184706 10.48502269 -10.3039614 9.13727289 -8.0625 8.125 C-5.70728751 6.84033864 -4.43801958 5.44666039 -2.75 3.375 C-2.22921875 2.74335938 -1.7084375 2.11171875 -1.171875 1.4609375 C-0.78515625 0.97882813 -0.3984375 0.49671875 0 0 Z " fill="#409497" transform="translate(227,241)"/>
<path d="M0 0 C3.85645121 -0.22036864 6.49223216 0.39644899 10 2 C9.01 2.33 8.02 2.66 7 3 C7 3.66 7 4.32 7 5 C4.69 4.34 2.38 3.68 0 3 C0 2.01 0 1.02 0 0 Z " fill="#E6E6E6" transform="translate(380,214)"/>
<path d="M0 0 C2.475 0.495 2.475 0.495 5 1 C4.67 2.65 4.34 4.3 4 6 C2.68 6 1.36 6 0 6 C0 4.02 0 2.04 0 0 Z " fill="#EAEAEA" transform="translate(385,246)"/>
<path d="M0 0 C1.134375 0.020625 2.26875 0.04125 3.4375 0.0625 C3.4375 0.3925 3.4375 0.7225 3.4375 1.0625 C1.7875 1.3925 0.1375 1.7225 -1.5625 2.0625 C-1.2325 2.3925 -0.9025 2.7225 -0.5625 3.0625 C-0.52169217 5.06208364 -0.51995644 7.06295254 -0.5625 9.0625 C-3.5625 7.0625 -3.5625 7.0625 -4.3125 4 C-4.395 3.030625 -4.4775 2.06125 -4.5625 1.0625 C-3.5625 0.0625 -3.5625 0.0625 0 0 Z " fill="#40878A" transform="translate(192.5625,240.9375)"/>
<path d="M0 0 C0.99 0.33 1.98 0.66 3 1 C2.34 1 1.68 1 1 1 C0.731875 1.969375 0.46375 2.93875 0.1875 3.9375 C-0.204375 4.948125 -0.59625 5.95875 -1 7 C-1.99 7.33 -2.98 7.66 -4 8 C-4.33 7.01 -4.66 6.02 -5 5 C-3.35 3.35 -1.7 1.7 0 0 Z " fill="#65D1D5" transform="translate(162,211)"/>
<path d="M0 0 C0.66 0.33 1.32 0.66 2 1 C0.4375 4 0.4375 4 -2 7 C-5.75 7.375 -5.75 7.375 -9 7 C-7.68 6.67 -6.36 6.34 -5 6 C-5 5.34 -5 4.68 -5 4 C-3.37373596 2.61767557 -1.7074998 1.28062485 0 0 Z " fill="#5EC3C7" transform="translate(155,245)"/>
<path d="M0 0 C0.66 0.33 1.32 0.66 2 1 C0.8758824 2.29243468 -0.24932592 3.58392075 -1.375 4.875 C-2.00148437 5.59429687 -2.62796875 6.31359375 -3.2734375 7.0546875 C-4.47426834 8.4076598 -5.7208345 9.7208345 -7 11 C-9.125 10.625 -9.125 10.625 -11 10 C-10.29875 9.649375 -9.5975 9.29875 -8.875 8.9375 C-5.21195759 6.46892794 -2.73603631 3.43179812 0 0 Z " fill="#388082" transform="translate(221,241)"/>
<path d="M0 0 C1.32 0.33 2.64 0.66 4 1 C4.33 2.32 4.66 3.64 5 5 C3.35 5.33 1.7 5.66 0 6 C0 4.02 0 2.04 0 0 Z " fill="#E9E9E9" transform="translate(284,213)"/>
<path d="M0 0 C0.66 0 1.32 0 2 0 C2.66 2.31 3.32 4.62 4 7 C2.35 7 0.7 7 -1 7 C-0.67 4.69 -0.34 2.38 0 0 Z " fill="#BEBEBE" transform="translate(246,216)"/>
<path d="M0 0 C0.33 0 0.66 0 1 0 C1.66 3.96 2.32 7.92 3 12 C1.68 11.34 0.36 10.68 -1 10 C-1.125 2.25 -1.125 2.25 0 0 Z " fill="#2D6B6E" transform="translate(197,239)"/>
<path d="M0 0 C0.33 0 0.66 0 1 0 C1 4.62 1 9.24 1 14 C-0.77706209 11.33440687 -1.87548273 8.9719385 -3 6 C-2.34 5.67 -1.68 5.34 -1 5 C-0.34444881 2.47266765 -0.34444881 2.47266765 0 0 Z " fill="#EDEDED" transform="translate(248,239)"/>
<path d="M0 0 C2.475 0.495 2.475 0.495 5 1 C4.67 2.32 4.34 3.64 4 5 C2.68 5 1.36 5 0 5 C0 3.35 0 1.7 0 0 Z " fill="#E3E3E3" transform="translate(240,240)"/>
<path d="M0 0 C0 0.99 0 1.98 0 3 C-1.53125 4.38671875 -1.53125 4.38671875 -3.5 5.6875 C-4.47453125 6.34298828 -4.47453125 6.34298828 -5.46875 7.01171875 C-5.9740625 7.33785156 -6.479375 7.66398438 -7 8 C-6.8125 5.625 -6.8125 5.625 -6 3 C-3.5 1.75 -3.5 1.75 -1 1 C-0.67 0.67 -0.34 0.34 0 0 Z " fill="#377A7C" transform="translate(153,234)"/>
<path d="M0 0 C1.32 0.33 2.64 0.66 4 1 C4 2.32 4 3.64 4 5 C2.68 5 1.36 5 0 5 C0 3.35 0 1.7 0 0 Z " fill="#EBEBEB" transform="translate(385,240)"/>
<path d="M0 0 C3.3 0 6.6 0 10 0 C8.02 0.99 8.02 0.99 6 2 C5.34 2.66 4.68 3.32 4 4 C2.68 3.34 1.36 2.68 0 2 C0 1.34 0 0.68 0 0 Z " fill="#276163" transform="translate(173,226)"/>
<path d="M0 0 C0 1.65 0 3.3 0 5 C-1.32 5.33 -2.64 5.66 -4 6 C-3.625 3.5625 -3.625 3.5625 -3 1 C-1 0 -1 0 0 0 Z " fill="#54CDD2" transform="translate(204,222)"/>
<path d="M0 0 C0 1.32 0 2.64 0 4 C-1.98 4 -3.96 4 -6 4 C-2.25 0 -2.25 0 0 0 Z " fill="#235759" transform="translate(162,227)"/>
</svg>
